<svg width="148" height="148" viewBox="0 0 148 148" fill="none" xmlns="http://www.w3.org/2000/svg">
<path fill-rule="evenodd" clip-rule="evenodd" d="M74 28.5909C48.9213 28.5909 28.5909 48.9213 28.5909 74C28.5909 99.0788 48.9213 119.409 74 119.409C99.0788 119.409 119.409 99.0788 119.409 74C119.409 48.9213 99.0788 28.5909 74 28.5909ZM18.5 74C18.5 43.3482 43.3482 18.5 74 18.5C104.652 18.5 129.5 43.3482 129.5 74C129.5 104.652 104.652 129.5 74 129.5C43.3482 129.5 18.5 104.652 18.5 74ZM92.704 55.2961C94.6744 57.2664 94.6744 60.461 92.704 62.4314L81.1353 74.0001L92.704 85.5688C94.6744 87.5392 94.6744 90.7338 92.704 92.7041C90.7336 94.6745 87.539 94.6745 85.5687 92.7041L74 81.1354L62.4313 92.7041C60.4609 94.6745 57.2663 94.6745 55.2959 92.7041C53.3256 90.7338 53.3256 87.5392 55.2959 85.5688L66.8646 74.0001L55.2959 62.4314C53.3256 60.461 53.3256 57.2664 55.2959 55.2961C57.2663 53.3257 60.4609 53.3257 62.4313 55.2961L74 66.8647L85.5687 55.2961C87.539 53.3257 90.7336 53.3257 92.704 55.2961Z" fill="#FF3131"/>
</svg>
