<svg width="143" height="150" viewBox="0 0 143 150" fill="none" xmlns="http://www.w3.org/2000/svg">
<path d="M89.5722 72.197C91.476 70.2932 91.476 67.2065 89.5722 65.3027C87.6684 63.3989 84.5818 63.3989 82.6779 65.3027L66.6251 81.3555L60.3222 75.0527C58.4184 73.1489 55.3318 73.1489 53.4279 75.0527C51.5241 76.9565 51.5241 80.0432 53.4279 81.947L63.1779 91.697C65.0818 93.6008 68.1684 93.6008 70.0722 91.697L89.5722 72.197Z" fill="#00DF74"/>
<path fill-rule="evenodd" clip-rule="evenodd" d="M71.5 24.875C41.883 24.875 17.875 48.883 17.875 78.5C17.875 108.117 41.883 132.125 71.5 132.125C101.117 132.125 125.125 108.117 125.125 78.5C125.125 48.883 101.117 24.875 71.5 24.875ZM27.625 78.5C27.625 54.2678 47.2678 34.625 71.5 34.625C95.7322 34.625 115.375 54.2678 115.375 78.5C115.375 102.732 95.7322 122.375 71.5 122.375C47.2678 122.375 27.625 102.732 27.625 78.5Z" fill="#00DF74"/>
<path d="M36.41 12V1.5H43.28V3.27H38.33V10.23H43.34V12H36.41ZM37.31 7.5V5.76H42.515V7.5H37.31ZM50.57 12L48.32 8.955L47.9 8.385L44.645 4.095H46.925L49.115 7.065L49.58 7.695L52.805 12H50.57ZM44.63 12L47.765 7.8L48.815 9.06L46.805 12H44.63ZM49.58 8.31L48.575 7.065L50.39 4.095H52.565L49.58 8.31ZM57.0628 12.15C56.3228 12.15 55.6578 11.97 55.0678 11.61C54.4778 11.25 54.0128 10.76 53.6728 10.14C53.3328 9.52 53.1628 8.82 53.1628 8.04C53.1628 7.26 53.3328 6.56 53.6728 5.94C54.0128 5.32 54.4778 4.83 55.0678 4.47C55.6578 4.11 56.3228 3.93 57.0628 3.93C57.7728 3.93 58.4178 4.065 58.9978 4.335C59.5778 4.605 60.0278 4.98 60.3478 5.46L59.3278 6.69C59.1778 6.48 58.9878 6.29 58.7578 6.12C58.5278 5.95 58.2828 5.815 58.0228 5.715C57.7628 5.615 57.5028 5.565 57.2428 5.565C56.8028 5.565 56.4078 5.675 56.0578 5.895C55.7178 6.105 55.4478 6.4 55.2478 6.78C55.0478 7.15 54.9478 7.57 54.9478 8.04C54.9478 8.51 55.0478 8.93 55.2478 9.3C55.4578 9.67 55.7378 9.965 56.0878 10.185C56.4378 10.405 56.8278 10.515 57.2578 10.515C57.5178 10.515 57.7678 10.475 58.0078 10.395C58.2578 10.305 58.4928 10.18 58.7128 10.02C58.9328 9.86 59.1378 9.66 59.3278 9.42L60.3478 10.665C60.0078 11.105 59.5378 11.465 58.9378 11.745C58.3478 12.015 57.7228 12.15 57.0628 12.15ZM65.4637 12.15C64.6337 12.15 63.8987 11.975 63.2587 11.625C62.6287 11.275 62.1337 10.8 61.7737 10.2C61.4237 9.59 61.2487 8.895 61.2487 8.115C61.2487 7.495 61.3487 6.93 61.5487 6.42C61.7487 5.91 62.0237 5.47 62.3737 5.1C62.7337 4.72 63.1587 4.43 63.6487 4.23C64.1487 4.02 64.6937 3.915 65.2837 3.915C65.8037 3.915 66.2887 4.015 66.7387 4.215C67.1887 4.415 67.5787 4.69 67.9087 5.04C68.2387 5.38 68.4887 5.79 68.6587 6.27C68.8387 6.74 68.9237 7.255 68.9137 7.815L68.8987 8.46H62.4937L62.1487 7.2H67.3537L67.1137 7.455V7.125C67.0837 6.815 66.9837 6.545 66.8137 6.315C66.6437 6.075 66.4237 5.89 66.1537 5.76C65.8937 5.62 65.6037 5.55 65.2837 5.55C64.7937 5.55 64.3787 5.645 64.0387 5.835C63.7087 6.025 63.4587 6.3 63.2887 6.66C63.1187 7.01 63.0337 7.45 63.0337 7.98C63.0337 8.49 63.1387 8.935 63.3487 9.315C63.5687 9.695 63.8737 9.99 64.2637 10.2C64.6637 10.4 65.1287 10.5 65.6587 10.5C66.0287 10.5 66.3687 10.44 66.6787 10.32C66.9887 10.2 67.3237 9.985 67.6837 9.675L68.5987 10.95C68.3287 11.2 68.0187 11.415 67.6687 11.595C67.3287 11.765 66.9687 11.9 66.5887 12C66.2087 12.1 65.8337 12.15 65.4637 12.15ZM70.5628 12V0.9H72.4228V12H70.5628ZM74.6057 12V0.9H76.4657V12H74.6057ZM82.1922 12.15C81.3622 12.15 80.6272 11.975 79.9872 11.625C79.3572 11.275 78.8622 10.8 78.5022 10.2C78.1522 9.59 77.9772 8.895 77.9772 8.115C77.9772 7.495 78.0772 6.93 78.2772 6.42C78.4772 5.91 78.7522 5.47 79.1022 5.1C79.4622 4.72 79.8872 4.43 80.3772 4.23C80.8772 4.02 81.4222 3.915 82.0122 3.915C82.5322 3.915 83.0172 4.015 83.4672 4.215C83.9172 4.415 84.3072 4.69 84.6372 5.04C84.9672 5.38 85.2172 5.79 85.3872 6.27C85.5672 6.74 85.6522 7.255 85.6422 7.815L85.6272 8.46H79.2222L78.8772 7.2H84.0822L83.8422 7.455V7.125C83.8122 6.815 83.7122 6.545 83.5422 6.315C83.3722 6.075 83.1522 5.89 82.8822 5.76C82.6222 5.62 82.3322 5.55 82.0122 5.55C81.5222 5.55 81.1072 5.645 80.7672 5.835C80.4372 6.025 80.1872 6.3 80.0172 6.66C79.8472 7.01 79.7622 7.45 79.7622 7.98C79.7622 8.49 79.8672 8.935 80.0772 9.315C80.2972 9.695 80.6022 9.99 80.9922 10.2C81.3922 10.4 81.8572 10.5 82.3872 10.5C82.7572 10.5 83.0972 10.44 83.4072 10.32C83.7172 10.2 84.0522 9.985 84.4122 9.675L85.3272 10.95C85.0572 11.2 84.7472 11.415 84.3972 11.595C84.0572 11.765 83.6972 11.9 83.3172 12C82.9372 12.1 82.5622 12.15 82.1922 12.15ZM87.2763 12V4.095H89.0763L89.1063 5.715L88.7613 5.895C88.8613 5.535 89.0563 5.21 89.3463 4.92C89.6363 4.62 89.9813 4.38 90.3813 4.2C90.7813 4.02 91.1913 3.93 91.6113 3.93C92.2113 3.93 92.7113 4.05 93.1113 4.29C93.5213 4.53 93.8263 4.89 94.0263 5.37C94.2363 5.85 94.3413 6.45 94.3413 7.17V12H92.4963V7.305C92.4963 6.905 92.4413 6.575 92.3313 6.315C92.2213 6.045 92.0513 5.85 91.8213 5.73C91.5913 5.6 91.3113 5.54 90.9813 5.55C90.7113 5.55 90.4613 5.595 90.2313 5.685C90.0113 5.765 89.8163 5.885 89.6463 6.045C89.4863 6.195 89.3563 6.37 89.2563 6.57C89.1663 6.77 89.1213 6.99 89.1213 7.23V12H88.2063C88.0263 12 87.8563 12 87.6963 12C87.5463 12 87.4063 12 87.2763 12ZM97.2719 12V2.085H99.1169V12H97.2719ZM95.7119 5.805V4.095H100.842V5.805H95.7119ZM102.562 8.31C102.492 7.69 102.422 7.05 102.352 6.39C102.292 5.72 102.242 5.06 102.202 4.41C102.162 3.75 102.142 3.125 102.142 2.535V1.44H104.092V2.535C104.092 3.145 104.072 3.785 104.032 4.455C104.002 5.125 103.952 5.79 103.882 6.45C103.822 7.11 103.752 7.73 103.672 8.31H102.562ZM103.087 12.165C102.727 12.165 102.447 12.06 102.247 11.85C102.057 11.64 101.962 11.345 101.962 10.965C101.962 10.615 102.062 10.33 102.262 10.11C102.472 9.88 102.747 9.765 103.087 9.765C103.447 9.765 103.722 9.87 103.912 10.08C104.112 10.28 104.212 10.575 104.212 10.965C104.212 11.315 104.107 11.605 103.897 11.835C103.697 12.055 103.427 12.165 103.087 12.165Z" fill="#2C3E50"/>
</svg>
