<svg width="149" height="143" viewBox="0 0 149 143" fill="none" xmlns="http://www.w3.org/2000/svg">
<path d="M93.2354 65.197C95.2091 63.2932 95.2091 60.2065 93.2354 58.3027C91.2618 56.3989 88.0618 56.3989 86.0882 58.3027L69.4462 74.3555L62.912 68.0527C60.9384 66.1489 57.7384 66.1489 55.7648 68.0527C53.7911 69.9565 53.7911 73.0432 55.7648 74.947L65.8726 84.697C67.8462 86.6008 71.0462 86.6008 73.0198 84.697L93.2354 65.197Z" fill="#00DF74"/>
<path fill-rule="evenodd" clip-rule="evenodd" d="M74.5 17.875C43.7961 17.875 18.9071 41.883 18.9071 71.5C18.9071 101.117 43.7961 125.125 74.5 125.125C105.204 125.125 130.093 101.117 130.093 71.5C130.093 41.883 105.204 17.875 74.5 17.875ZM29.0149 71.5C29.0149 47.2678 49.3785 27.625 74.5 27.625C99.6215 27.625 119.985 47.2678 119.985 71.5C119.985 95.7322 99.6215 115.375 74.5 115.375C49.3785 115.375 29.0149 95.7322 29.0149 71.5Z" fill="#00DF74"/>
</svg>
