<svg width="149" height="143" fill="none" xmlns="http://www.w3.org/2000/svg"><path d="M93.235 65.197a4.754 4.754 0 0 0 0-6.894c-1.973-1.904-5.173-1.904-7.147 0L69.446 74.356l-6.534-6.303c-1.974-1.904-5.174-1.904-7.147 0a4.754 4.754 0 0 0 0 6.894l10.108 9.75c1.973 1.904 5.173 1.904 7.147 0l20.215-19.5Z" fill="#00DF74"/><path fill-rule="evenodd" clip-rule="evenodd" d="M74.5 17.875c-30.704 0-55.593 24.008-55.593 53.625s24.89 53.625 55.593 53.625c30.704 0 55.593-24.008 55.593-53.625S105.204 17.875 74.5 17.875ZM29.015 71.5c0-24.232 20.364-43.875 45.485-43.875s45.485 19.643 45.485 43.875-20.364 43.875-45.485 43.875S29.015 95.732 29.015 71.5Z" fill="#00DF74"/></svg>