<svg width="148" height="148" fill="none" xmlns="http://www.w3.org/2000/svg"><path fill-rule="evenodd" clip-rule="evenodd" d="M74 28.59c-25.079 0-45.41 20.331-45.41 45.41 0 25.079 20.331 45.409 45.41 45.409 25.079 0 45.409-20.33 45.409-45.409S99.079 28.59 74 28.59ZM18.5 74c0-30.652 24.848-55.5 55.5-55.5s55.5 24.848 55.5 55.5-24.848 55.5-55.5 55.5S18.5 104.652 18.5 74Zm74.204-18.704a5.045 5.045 0 0 1 0 7.135l-11.569 11.57 11.569 11.568a5.045 5.045 0 1 1-7.135 7.135L74 81.135l-11.569 11.57a5.045 5.045 0 0 1-7.135-7.136L66.865 74l-11.57-11.569a5.046 5.046 0 0 1 7.136-7.135L74 66.865l11.569-11.569a5.045 5.045 0 0 1 7.135 0Z" fill="#FF3131"/></svg>